<?xml version="1.0" encoding="UTF-8" standalone="no"?>
<!-- Created with Inkscape (http://www.inkscape.org/) -->

<svg version="1.1" id="svg1" width="808.01501" height="808.01501" viewBox="0 0 808.01502 808.01502" xml:space="preserve"
  xmlns="http://www.w3.org/2000/svg"
  xmlns:svg="http://www.w3.org/2000/svg">
  <defs id="defs1" />
  <g id="g1" transform="translate(-130.75101,-77.345001)">
    <g id="g4" transform="translate(74.674001)">
      <g id="g2" transform="matrix(2.6718662,0,0,2.6718677,130.75101,77.345001)" style="display:inline">
        <path style="display:inline;opacity:0.2;fill-opacity:0.599361" d="m 111.20641,298.82131 c -16.074004,-7.50837 -16.305904,-7.67759 -16.999504,-12.40252 -0.3441,-2.34401 -0.4849,-20.05588 -0.313,-39.35971 0.2486,-27.92503 0.593,-35.43551 1.6849,-36.75 1.2502,-1.50488 7.116004,-1.65213 65.815804,-1.65213 42.51,0 65.1016,0.35232 66.3775,1.03518 6.6952,3.58312 -4.5677,25.27533 -22.5382,43.40832 -15.4749,15.61494 -40.4398,32.25256 -65.6883,43.7774 -15.2087,6.9421 -17.327,7.08737 -28.3392,1.94346 z M 58.206406,267.81486 c -1.65,-1.00904 -5.5875,-4.20251 -8.75,-7.09661 -7.7791,-7.11884 -7.8013,-9.46412 -0.1722,-18.18514 10.8664,-12.42166 13.4258,-13.87252 17.4222,-9.87616 1.828,1.82796 2,3.33333 2,17.5 0,14.16667 -0.172,15.67204 -2,17.5 -2.4799,2.47986 -4.6375,2.51995 -8.5,0.15791 z m -29.43,-29.1886 c -5.3926,-6.82215 -12.07,-20.4037 -12.07,-24.54992 0,-2.28762 0.613,-3.6771 1.9343,-4.38421 1.1386,-0.60935 9.7476,-1.03518 20.9285,-1.03518 15.9343,0 19.2475,0.25317 20.5658,1.57143 3.5912,3.59124 2.1102,6.29091 -13.8381,25.22535 -6.0929,7.23374 -7.3016,8.20322 -10.2268,8.20322 -2.7897,0 -3.9495,-0.79996 -7.2937,-5.03069 z m -16.7222,-42.63218 C 9.5536057,195.47053 8.4400057,192.94289 6.2257057,182.7637 1.3974057,160.5691 -0.75499426,127.76829 0.23630574,91.491489 0.67560574,75.417247 1.3713057,64.956217 2.0981057,63.498463 c 0.9595,-1.924672 2.7138,-2.640845 10.1344003,-4.137384 17.2093,-3.470679 28.1465,-10.57084 33.6737,-21.860038 2.6728,-5.459253 5.8002,-16.042233 5.8002,-19.627656 0,-3.712993 3.1557,-6.230147 8.6075,-6.865782 9.0781,-1.0584209 8.3925,-8.6295585 8.3925,92.680727 0,74.88886 -0.2193,88.8865 -1.418,90.52749 -1.3355,1.82801 -2.9235,1.94951 -27.25,2.08499 -14.2076,0.0791 -26.8005,-0.0589 -27.9842,-0.30673 z m 90.152204,-0.0236 c -2.624204,-0.6328 -4.500004,-3.13247 -4.500004,-5.99681 0,-1.56963 6.129604,-9.21677 19.284604,-24.05887 10.6066,-11.96683 34.9715,-39.53287 54.1444,-61.25787 46.7119,-52.929941 43.001,-49.001364 46.2778,-48.992148 4.3159,0.01214 26.5397,5.772885 27.354,7.090588 1.214,1.964207 2.2461,47.30129 1.5003,65.90156 -1.1097,27.67646 -5.7519,61.14269 -9.1205,65.75089 -1.1931,1.63217 -5.6799,1.759 -67.1096,1.89702 -36.2071,0.0814 -66.731,-0.0691 -67.831,-0.33436 z m -6.058904,-29.73262 c -1.886,-1.37881 -1.9497,-3.49952 -2.2456,-74.750002 -0.1675,-40.332013 -0.026,-75.668179 0.3149,-78.524814 0.5671,-4.7546529 0.8888,-5.2774219 3.8045,-6.1817549 9.630404,-2.9869387 42.138704,-2.1321004 73.185104,1.924475 22.9618,3.0002219 22.0157,2.4232139 24.8935,15.1829599 0.835,3.702489 2.9122,9.907783 4.6159,13.789543 2.8225,6.430813 2.9757,7.302214 1.7247,9.809884 -0.7551,1.513676 -9.4601,12.408381 -19.3444,24.210457 -9.8842,11.802075 -30.7136,36.758322 -46.2875,55.458322 -15.5738,18.7 -29.8364,35.4625 -31.6945,37.25 -3.686,3.54594 -5.979904,4.01435 -8.966604,1.83093 z" id="path1887" />
        <path style="display:inline;fill:#c6c6c6;fill-opacity:1" d="m 111.20641,293.82131 c -16.074004,-7.50837 -16.305904,-7.67759 -16.999504,-12.40252 -0.3441,-2.34401 -0.4849,-20.05588 -0.313,-39.35971 0.2486,-27.92503 0.593,-35.43551 1.6849,-36.75 1.2502,-1.50488 7.116004,-1.65213 65.815804,-1.65213 42.51,0 65.1016,0.35232 66.3775,1.03518 6.6952,3.58312 -4.5677,25.27533 -22.5382,43.40832 -15.4749,15.61494 -40.4398,32.25256 -65.6883,43.7774 -15.2087,6.9421 -17.327,7.08737 -28.3392,1.94346 z M 58.206406,262.81486 c -1.65,-1.00904 -5.5875,-4.20251 -8.75,-7.09661 -7.7791,-7.11884 -7.8013,-9.46412 -0.1722,-18.18514 10.8664,-12.42166 13.4258,-13.87252 17.4222,-9.87616 1.828,1.82796 2,3.33333 2,17.5 0,14.16667 -0.172,15.67204 -2,17.5 -2.4799,2.47986 -4.6375,2.51995 -8.5,0.15791 z m -29.43,-29.1886 c -5.3926,-6.82215 -12.07,-20.4037 -12.07,-24.54992 0,-2.28762 0.613,-3.6771 1.9343,-4.38421 1.1386,-0.60935 9.7476,-1.03518 20.9285,-1.03518 15.9343,0 19.2475,0.25317 20.5658,1.57143 3.5912,3.59124 2.1102,6.29091 -13.8381,25.22535 -6.0929,7.23374 -7.3016,8.20322 -10.2268,8.20322 -2.7897,0 -3.9495,-0.79996 -7.2937,-5.03069 z m -16.7222,-42.63218 C 9.5536057,190.47053 8.4400057,187.94289 6.2257057,177.7637 1.3974057,155.5691 -0.75499426,122.76829 0.23630574,86.491489 0.67560574,70.417247 1.3713057,59.956217 2.0981057,58.498463 c 0.9595,-1.924672 2.7138,-2.640845 10.1344003,-4.137384 17.2093,-3.470679 28.1465,-10.57084 33.6737,-21.860038 2.6728,-5.459253 5.8002,-16.042233 5.8002,-19.627656 0,-3.7129931 3.1557,-6.2301461 8.6075,-6.8657821 9.0781,-1.058421 8.3925,-8.6295584 8.3925,92.6807201 0,74.888867 -0.2193,88.886507 -1.418,90.527497 -1.3355,1.82801 -2.9235,1.94951 -27.25,2.08499 -14.2076,0.0791 -26.8005,-0.0589 -27.9842,-0.30673 z m 90.152204,-0.0236 c -2.624204,-0.6328 -4.500004,-3.13247 -4.500004,-5.99681 0,-1.56963 6.129604,-9.21677 19.284604,-24.05887 10.6066,-11.96683 34.9715,-39.53287 54.1444,-61.257877 46.7119,-52.929934 43.001,-49.001357 46.2778,-48.992141 4.3159,0.01214 26.5397,5.772885 27.354,7.090588 1.214,1.964207 2.2461,47.30129 1.5003,65.90156 -1.1097,27.67646 -5.7519,61.14269 -9.1205,65.75089 -1.1931,1.63217 -5.6799,1.759 -67.1096,1.89702 -36.2071,0.0814 -66.731,-0.0691 -67.831,-0.33436 z m -6.058904,-29.73262 c -1.886,-1.37881 -1.9497,-3.49952 -2.2456,-74.750002 -0.1675,-40.332013 -0.026,-75.668179 0.3149,-78.5248141 0.5671,-4.754653 0.8888,-5.2774219 3.8045,-6.1817546 9.630404,-2.9869389 42.138704,-2.13210073 73.185104,1.9244746 22.9618,3.000222 22.0157,2.423214 24.8935,15.1829601 0.835,3.702489 2.9122,9.907783 4.6159,13.789543 2.8225,6.430813 2.9757,7.302214 1.7247,9.809884 -0.7551,1.513676 -9.4601,12.408381 -19.3444,24.210457 -9.8842,11.802075 -30.7136,36.758322 -46.2875,55.458322 -15.5738,18.7 -29.8364,35.4625 -31.6945,37.25 -3.686,3.54594 -5.979904,4.01435 -8.966604,1.83093 z" id="path7966" />
        <path id="path7963" style="display:inline;opacity:0.200393;fill:#ffffff;fill-opacity:1" d="M 117.22266,0.00798343 C 108.4604,0.08133763 101.63288,0.66131993 98.021484,1.7814209 95.105787,2.685753 94.783896,3.2084133 94.216797,7.9630615 94.031586,9.5150694 93.921013,21.47048 93.871094,37.789233 93.928897,23.81543 94.048221,14.375672 94.216797,12.963062 94.783896,8.2084133 95.105787,7.6857527 98.021484,6.7814209 107.65188,3.794485 140.16066,4.6486778 171.20703,8.705249 c 22.96178,3.000219 22.01478,2.42386 24.89258,15.183594 0.835,3.702485 2.91154,9.907306 4.61523,13.789062 0.8888,2.025045 1.43311,3.391877 1.83204,4.539063 1.0901,-2.291401 0.8768,-3.367229 -1.83204,-9.539063 -1.70369,-3.881756 -3.78023,-10.086577 -4.61523,-13.789062 C 193.22181,6.1291096 194.16881,6.705468 171.20703,3.705249 151.80305,1.1698922 131.82642,-0.11427357 117.22266,0.00798343 Z M 64.458984,5.486499 c -1.084512,-0.1042752 -2.442389,0.3230307 -4.144531,0.5214844 -5.451794,0.6356354 -8.607422,3.1522451 -8.607422,6.8652346 0,3.585419 -3.127984,14.169659 -5.800781,19.628906 C 40.379056,43.791311 29.441705,50.890824 12.232422,54.361499 4.811829,55.858037 3.0571553,56.573548 2.0976562,58.498218 1.370857,59.95597 0.67562769,70.418133 0.23632812,86.492359 0.07543721,92.38019 0.02851655,98.128689 0.03125,103.8029 0.06297645,99.747052 0.12270887,95.650276 0.23632812,91.492359 0.67562769,75.418133 1.370857,64.95597 2.0976562,63.498218 3.0571553,61.573548 4.811829,60.858037 12.232422,59.361499 29.441705,55.890824 40.379056,48.791311 45.90625,37.502124 c 2.672797,-5.459247 5.800781,-16.043487 5.800781,-19.628906 0,-3.71299 3.155628,-6.229599 8.607422,-6.865235 8.948748,-1.0433394 8.407792,-7.4212389 8.390625,89.410157 4e-5,-0.700962 0.002,-1.018543 0.002,-1.730469 0,-82.314519 0.451506,-92.7493126 -4.248047,-93.201172 z M 216.40039,50.595874 c -2.12355,-0.03448 -4.39275,2.746901 -45.26562,49.060547 -19.17289,21.724989 -43.53795,49.290989 -54.14454,61.257809 -13.15498,14.84209 -19.283199,22.49092 -19.283199,24.06055 0,1.14374 0.364233,2.18537 0.890625,3.11719 2.073584,-3.3022 8.015464,-10.46979 18.392574,-22.17774 10.60659,-11.96682 34.97165,-39.53282 54.14454,-61.25781 46.71185,-52.92988 43.0025,-49.001402 46.27929,-48.992187 4.3159,0.01214 26.53922,5.774096 27.35352,7.091797 0.87286,1.412251 1.62521,25.191796 1.7168,45.38867 0.0385,-21.064381 -0.76629,-48.850779 -1.7168,-50.38867 -0.8143,-1.317701 -23.03762,-7.079657 -27.35352,-7.091797 -0.4096,-0.0012 -0.71031,-0.06343 -1.01367,-0.06836 z M 39.568359,203.65642 c -11.180888,0 -19.789135,0.42581 -20.927734,1.03516 -1.321299,0.70711 -1.933594,2.09714 -1.933594,4.38476 0,0.59813 0.169809,1.43278 0.423828,2.375 0.316299,-0.79604 0.806204,-1.38324 1.509766,-1.75976 1.138599,-0.60935 9.746846,-1.03516 20.927734,-1.03516 15.934284,0 19.248108,0.25401 20.566407,1.57227 0.326225,0.32623 0.557497,0.6483 0.792968,0.97265 1.31317,-2.83635 0.829066,-4.3506 -0.792968,-5.97265 -1.318299,-1.31826 -4.632123,-1.57227 -20.566407,-1.57227 z m 121.826171,0 c -58.69974,0 -64.566206,0.14747 -65.816405,1.65234 -1.091899,1.31449 -1.434994,8.825 -1.683594,36.75 -0.08808,9.8914 -0.09265,19.28037 -0.03125,26.48243 -0.02782,-6.45388 -0.03965,-13.52013 0.03125,-21.48243 0.2486,-27.925 0.591695,-35.43551 1.683594,-36.75 1.250199,-1.50487 7.116665,-1.65234 65.816405,-1.65234 42.50996,0 65.10106,0.3523 66.37695,1.03516 0.76558,0.40972 1.26925,1.08271 1.58204,1.93359 0.72565,-3.42168 0.31203,-5.91993 -1.58204,-6.93359 -1.27589,-0.68286 -23.86699,-1.03516 -66.37695,-1.03516 z m -99.091796,22.09375 c -2.680559,0.54113 -6.226085,4.01967 -13.017578,11.7832 -5.000286,5.71596 -6.648051,8.70274 -5.044922,12.08008 0.823265,-1.92578 2.457852,-4.12273 5.044922,-7.08008 10.866389,-12.42164 13.425479,-13.87331 17.421875,-9.87695 1.692841,1.6928 1.951355,3.54891 1.982422,15 0.0025,-0.91408 0.01758,-1.4528 0.01758,-2.5 0,-14.16666 -0.172002,-15.67204 -2,-17.5 -1.498648,-1.49863 -2.795961,-2.23093 -4.404297,-1.90625 z" />
      </g>
      <g id="g3" transform="matrix(6.6775854,0,0,6.6775854,403.3623,456.83054)" style="display:inline;opacity:1">
        <path style="opacity:0.2" d="m 30.6,5.0000019 c -3.1024,0 -5.6,2.4976 -5.6,5.6000001 v 2.625 a 21,21 0 0 0 -6.622656,3.825391 l -2.275,-1.3125 c -2.686757,-1.5512 -6.099581,-0.635977 -7.6507812,2.050781 l -1.4,2.422656 c -1.5512,2.686758 -0.6359759,6.099581 2.0507812,7.650781 l 2.264063,1.307032 A 21,21 0 0 0 11,33.000002 a 21,21 0 0 0 0.366407,3.830859 l -2.264063,1.307032 c -2.6867571,1.5512 -3.6019812,4.964023 -2.0507812,7.650781 l 1.4,2.422656 c 1.5512002,2.686758 4.9640242,3.601981 7.6507812,2.050781 l 2.258593,-1.304296 A 21,21 0 0 0 32,54.000002 21,21 0 0 0 45.622657,48.949611 l 2.275,1.3125 c 2.686757,1.5512 6.09958,0.635977 7.65078,-2.050781 l 1.4,-2.422656 c 1.5512,-2.686758 0.635977,-6.099581 -2.05078,-7.650781 L 52.633594,36.830861 A 21,21 0 0 0 53,33.000002 21,21 0 0 0 52.633594,29.169143 l 2.264063,-1.307032 c 2.686757,-1.5512 3.60198,-4.964023 2.05078,-7.650781 l -1.4,-2.422656 c -1.5512,-2.686758 -4.964023,-3.601981 -7.65078,-2.050781 l -2.258594,1.304296 A 21,21 0 0 0 39,13.227736 V 10.600002 C 39,7.4976019 36.5024,5.0000019 33.4,5.0000019 Z" id="path1" />
        <rect style="opacity:0.2" width="14" height="22.4" x="25" y="38.599998" rx="5.5999999" ry="5.5999999" id="rect1" />
        <path style="fill:#008374" d="M 30.6,4 C 27.4976,4 25,6.4976 25,9.6 v 2.625 a 21,21 0 0 0 -6.622656,3.825391 l -2.275,-1.3125 c -2.686757,-1.5512 -6.099581,-0.635977 -7.6507812,2.050781 l -1.4,2.422656 c -1.5512,2.686758 -0.6359759,6.099581 2.0507812,7.650781 l 2.264063,1.307032 A 21,21 0 0 0 11,32 a 21,21 0 0 0 0.366407,3.830859 l -2.264063,1.307032 c -2.6867571,1.5512 -3.6019812,4.964023 -2.0507812,7.650781 l 1.4,2.422656 c 1.5512002,2.686758 4.9640242,3.601981 7.6507812,2.050781 l 2.258593,-1.304296 A 21,21 0 0 0 32,53 21,21 0 0 0 45.622657,47.949609 l 2.275,1.3125 c 2.686757,1.5512 6.09958,0.635977 7.65078,-2.050781 l 1.4,-2.422656 c 1.5512,-2.686758 0.635977,-6.099581 -2.05078,-7.650781 L 52.633594,35.830859 A 21,21 0 0 0 53,32 21,21 0 0 0 52.633594,28.169141 l 2.264063,-1.307032 c 2.686757,-1.5512 3.60198,-4.964023 2.05078,-7.650781 l -1.4,-2.422656 c -1.5512,-2.686758 -4.964023,-3.601981 -7.65078,-2.050781 l -2.258594,1.304296 A 21,21 0 0 0 39,12.227734 V 9.6 C 39,6.4976 36.5024,4 33.4,4 Z" id="path2" />
        <rect style="fill:#e4e4e4" width="14" height="22.4" x="25" y="37.599998" rx="5.5999999" ry="5.5999999" id="rect2" />
        <rect style="opacity:0.4" width="6" height="16.799999" x="29" y="40.200001" rx="3" ry="2.8" id="rect3" />
        <path style="opacity:0.2" d="m 38,20.36719 v 9.632812 l -6,4 -6,-4 v -9.619141 c -4.864353,2.309266 -7.993068,7.20808 -8,12.619141 0,7.731985 6.268014,14 14,14 7.731986,0 14,-6.268015 14,-14 C 45.997275,27.58454 42.868564,22.67791 38,20.36719 Z" id="path3" />
        <path style="fill:#ffffff" d="M 38,19.367188 V 29 l -6,4 -6,-4 V 19.380859 C 21.135647,21.690125 18.006932,26.588939 18,32 c 0,7.731985 6.268014,14 14,14 7.731986,0 14,-6.268015 14,-14 -0.0027,-5.415462 -3.131436,-10.322092 -8,-12.632812 z" id="path4" />
        <path style="opacity:0.1;fill:#ffffff" d="M 30.599609,4 C 27.497209,4 25,6.4972094 25,9.5996094 V 10.599609 C 25,7.4972094 27.497209,5 30.599609,5 h 2.800782 C 36.502791,5 39,7.4972094 39,10.599609 V 9.5996094 C 39,6.4972094 36.502791,4 33.400391,4 Z M 25,12.224609 a 21,21 0 0 0 -6.623047,3.826172 l -2.275391,-1.3125 c -2.686757,-1.5512 -6.09919,-0.635976 -7.6503901,2.050781 l -1.4003907,2.421876 c -0.6033566,1.045044 -0.8286088,2.200037 -0.7265624,3.3125 0.069736,-0.789767 0.3027074,-1.578362 0.7265624,-2.3125 l 1.4003907,-2.421876 c 1.5512001,-2.686757 4.9636331,-3.601981 7.6503901,-2.050781 l 2.275391,1.3125 A 21,21 0 0 1 25,13.224609 Z m 14,0.0039 v 1 a 21,21 0 0 1 6.638672,3.814453 l 2.259766,-1.304688 c 2.686757,-1.5512 6.09919,-0.635977 7.65039,2.050781 l 1.400391,2.421876 c 0.423855,0.734138 0.656827,1.522733 0.726562,2.3125 0.102046,-1.112463 -0.123206,-2.267456 -0.726562,-3.3125 l -1.400391,-2.421876 c -1.5512,-2.686758 -4.963633,-3.601981 -7.65039,-2.050781 l -2.259766,1.304688 A 21,21 0 0 0 39,12.228516 Z M 52.767578,29.09179 52.632812,29.16992 A 21,21 0 0 1 52.974609,32.541016 21,21 0 0 0 53,32 21,21 0 0 0 52.767578,29.091797 Z m -41.529297,0.0039 A 21,21 0 0 0 11,32 a 21,21 0 0 0 0.02539,0.458984 21,21 0 0 1 0.341797,-3.289062 z m 41.523438,6.808594 a 21,21 0 0 1 -0.128907,0.925781 l 2.265626,1.308594 c 1.641712,0.947843 2.617034,2.590267 2.777343,4.33789 0.185479,-2.100574 -0.824725,-4.210545 -2.777343,-5.33789 z m -41.529297,0.0039 -2.1308595,1.230469 c -1.9526187,1.127345 -2.9628223,3.237316 -2.7773437,5.33789 0.1603097,-1.747623 1.1356309,-3.390047 2.7773437,-4.33789 l 2.2656255,-1.308594 a 21,21 0 0 1 -0.134766,-0.921875 z" id="path5" />
      </g>
    </g>
  </g>
</svg>
